<svg width="781" height="802" viewBox="0 0 781 802" fill="none" xmlns="http://www.w3.org/2000/svg">
<g clip-path="url(#clip0_156_33)">
<path d="M389.444 369.236C403.191 369.236 414.335 352.986 414.335 332.94C414.335 312.895 403.191 296.645 389.444 296.645C375.697 296.645 364.553 312.895 364.553 332.94C364.553 352.986 375.697 369.236 389.444 369.236Z" fill="#6C63FF"/>
<path d="M117.557 47.7284V393.4C117.564 401.798 119.854 409.848 123.927 415.786C127.999 421.724 133.52 425.065 139.279 425.075H759.278C765.037 425.065 770.558 421.724 774.63 415.786C778.702 409.848 780.993 401.798 781 393.4V47.7284C780.993 39.3309 778.702 31.2802 774.63 25.3422C770.558 19.4042 765.037 16.0638 759.278 16.0537H139.279C133.52 16.0638 127.999 19.4042 123.927 25.3422C119.854 31.2801 117.564 39.3309 117.557 47.7284ZM119.471 47.7284C119.471 40.0682 121.558 32.7218 125.273 27.3052C128.987 21.8887 134.026 18.8457 139.279 18.8457H630.05C669.576 18.8457 707.484 41.7417 735.434 82.497C763.384 123.252 779.085 178.528 779.086 236.165V393.4C779.086 401.06 776.999 408.407 773.284 413.823C769.569 419.24 764.531 422.283 759.278 422.283H139.279C134.026 422.283 128.987 419.24 125.273 413.823C121.558 408.407 119.471 401.06 119.471 393.4V47.7284Z" fill="#3F3D56"/>
<path d="M124.705 775.995L138.593 775.994L145.2 697.88L124.702 697.883L124.705 775.995Z" fill="#6F1E00"/>
<path d="M124.216 797.121L166.924 797.119V796.332C166.924 789.903 165.173 783.738 162.055 779.193C158.938 774.647 154.71 772.093 150.301 772.093H150.3L142.499 763.463L127.944 772.094L124.216 772.094L124.216 797.121Z" fill="#2F2E41"/>
<path d="M64.122 775.995L78.0103 775.994L84.617 697.88L64.1191 697.883L64.122 775.995Z" fill="#6F1E00"/>
<path d="M63.6335 797.121L106.341 797.119V796.332C106.341 789.903 104.59 783.738 101.472 779.193C98.3549 774.647 94.1269 772.093 89.7183 772.093H89.7173L81.9162 763.463L67.361 772.094L63.6328 772.094L63.6335 797.121Z" fill="#2F2E41"/>
<path d="M159.285 350.38C159.285 350.38 172.647 410.224 170.181 418.1C167.715 425.976 163.506 419.84 167.715 425.976C171.923 432.112 175.596 425.59 171.655 436.01C167.715 446.43 161.744 532.212 159.119 536.364C156.493 540.517 152.883 540.628 156.091 544.663C159.298 548.698 163.506 540.517 159.298 548.698C155.09 556.88 143.924 745.617 143.924 745.617H122.11C122.11 745.617 116.678 736.485 119.753 730.543C122.828 724.6 119.483 722.309 119.753 718.341C120.023 714.373 119 705.818 118.81 701.914C118.62 698.01 114.934 605.009 123.79 551.287L107.64 448.994L88.0771 572.629C88.0771 572.629 97.0761 676.332 88.0771 709.67C88.0771 709.67 95.3323 718.48 92.1146 723.585C88.8969 728.69 86.0915 724.6 88.8969 728.69C91.7023 732.781 84.6889 747.099 84.6889 747.099L60.8429 745.053L47.3462 551.287C47.3462 551.287 45.0709 531.079 47.3462 527.616C49.6214 524.154 49.6214 536.426 49.6214 524.154V507.791C49.6214 507.791 50.9393 407.149 51.115 401.222C51.2907 395.296 68.1231 352.343 68.1231 352.343L159.285 350.38Z" fill="#2F2E41"/>
<path d="M159.087 143.688V261.69C156.474 273.116 155.127 285.075 155.094 297.12C155.181 317.18 158.206 340.297 158.196 350.404C158.237 351.744 158.136 353.086 157.899 354.382C144.506 410.989 73.6335 359.548 67.1905 354.731C66.8842 354.508 66.7214 354.382 66.7214 354.382L68.1192 290.977L67.8798 272.746L66.2236 147.68L67.7075 145.949L80.7083 130.831L81.9816 129.351L85.8876 137.657L120.706 134.167L133.994 128.807L138.14 131.264L156.827 142.348L159.087 143.688Z" fill="#6C63FF"/>
<path d="M280.435 236.416L256.035 224.653L249.481 244.04L275.582 255.139C276.436 257.113 277.649 258.702 279.088 259.725C280.526 260.749 282.132 261.167 283.724 260.933C285.316 260.699 286.832 259.822 288.102 258.4C289.371 256.979 290.343 255.069 290.909 252.886C291.475 250.703 291.611 248.334 291.304 246.043C290.997 243.753 290.258 241.633 289.17 239.922C288.081 238.211 286.687 236.976 285.144 236.357C283.601 235.737 281.97 235.758 280.435 236.416Z" fill="#6F1E00" fill-opacity="0.878431"/>
<path d="M135.45 132.21L135.349 132.799C133.442 143.921 131.008 175.691 136.225 184.269C142.923 195.298 197.032 228.97 207.782 226.226C216.119 224.099 214.402 224.813 218.391 230.864C222.38 236.915 215.759 238.329 224.657 239.388C233.555 240.446 233.732 235.478 235.638 240.988C237.544 246.498 235.848 249.818 241.904 249.511C247.959 249.205 249.477 250.853 251.561 251.394C253.644 251.936 266.724 260.977 266.724 260.977C266.724 260.977 271.971 239.148 278.576 230.836C278.576 230.836 263.428 228.153 262.282 223.467C261.135 218.781 262.071 214.637 258.099 215.485C254.127 216.333 252.06 222.691 252.609 214.685C253.157 206.679 224.542 191.093 224.542 191.093C207.273 166.3 171.792 149.076 135.45 132.21Z" fill="#6C63FF"/>
<path d="M58.0352 378.66L56.9284 341.22L42.1729 339.158L44.3089 378.681C43.3452 380.544 42.7571 382.762 42.6106 385.086C42.4641 387.41 42.765 389.747 43.4796 391.835C44.1941 393.924 45.294 395.68 46.6555 396.906C48.017 398.133 49.5862 398.782 51.1866 398.779C52.787 398.777 54.3552 398.123 55.715 396.892C57.0747 395.662 58.172 393.902 58.8835 391.812C59.5951 389.721 59.8926 387.383 59.7428 385.06C59.5929 382.736 59.0015 380.52 58.0352 378.66Z" fill="#6F1E00"/>
<path d="M73.4591 144.037L73.0456 144.108C69.1995 144.769 65.5219 146.788 62.3312 149.989C59.1406 153.19 56.5331 157.476 54.7345 162.478C50.0364 175.521 35.1738 263.864 38.8129 275.988C42.2067 287.294 42.0664 284.514 39.6001 292.097C37.1338 299.681 33.8804 291.155 36.3557 303.662C38.831 316.169 42.0799 314.65 39.2223 319.202C36.3648 323.753 33.6346 322.619 35.9779 330.766C38.3213 338.914 37.8025 341.568 38.1939 344.601C38.5852 347.633 37.4248 368.673 37.4248 368.673C37.4248 368.673 53.2824 368.089 60.9541 374.147C60.9541 374.147 57.3049 352.543 59.9031 349.318C62.5013 346.094 65.4909 345.901 63.5388 340.786C61.5867 335.67 56.7771 335.106 62.1055 333.016C67.4339 330.926 67.2838 286.385 67.2838 286.385L73.4591 144.037Z" fill="#6C63FF"/>
<path d="M111.478 96.3223C110.855 96.5317 110.233 96.7132 109.611 96.8528C107.71 97.3081 105.78 97.4532 103.857 97.2856C98.8482 96.8934 94.0116 94.4858 89.8837 90.3298C85.7558 86.1739 82.498 80.4319 80.4717 73.7408C78.4453 67.0497 77.7294 59.6709 78.4036 52.4227C79.0778 45.1746 81.1155 38.3403 84.2909 32.6779C87.4663 27.0155 91.6552 22.7463 96.3931 20.3436C101.131 17.941 106.233 17.4988 111.132 19.0662C116.032 20.6336 120.538 24.1492 124.151 29.2233C127.764 34.2974 130.343 40.7315 131.601 47.8122C131.659 48.1332 131.716 48.4404 131.764 48.7614C133.397 58.9909 132.178 69.7475 128.374 78.6663C124.57 87.5851 118.492 93.9359 111.478 96.3223Z" fill="#6F1E00"/>
<path d="M86.4116 91.6491C82.6343 87.3386 82.2677 79.1223 79.0443 73.943C73.655 65.2835 71.123 55.967 73.9461 45.7062C76.4431 36.6308 75.9123 25.4749 81.2902 19.6332C78.6489 18.239 78.0274 15.3436 80.3579 15.2902C81.9295 15.2541 87.7883 19.634 84.9692 14.1779C82.15 8.72168 87.4864 10.8754 87.1335 8.64196C86.7805 6.40856 84.5171 5.17156 83.5189 6.94193C86.7059 1.49677 93.6657 2.65768 95.927 9.01161C99.1035 2.06982 102.475 -2.70679 107.336 1.69846C112.11 6.02508 112.048 11.3734 117.181 10.0881C119.595 9.48384 119.823 16.1326 121.472 18.7727C123.12 21.4128 125.53 23.456 127.937 22.793C130.343 22.1299 132.183 17.7574 130.834 14.7767L136.506 33.6423L138.791 29.5543C142.423 33.0055 141.23 42.0111 137.574 45.4081C133.919 48.8051 126.942 40.9535 124.958 46.5736C121.831 55.4327 114.494 50.9592 109.456 44.6984C103.346 37.1057 95.972 60.1914 98.9151 71.0808C95.8614 66.7083 90.2123 70.337 88.6304 76.1357C87.0484 81.9344 88.2084 88.4675 89.3811 94.4693L86.4116 91.6491Z" fill="#2F2E41"/>
<path d="M463.759 221.998H435.021C434.276 221.997 433.561 221.564 433.034 220.796C432.506 220.027 432.21 218.984 432.209 217.897V176.504C432.21 175.417 432.506 174.374 433.034 173.606C433.561 172.837 434.276 172.404 435.021 172.403H463.759C464.505 172.404 465.22 172.837 465.747 173.606C466.274 174.374 466.571 175.417 466.571 176.504V217.897C466.571 218.984 466.274 220.027 465.747 220.796C465.22 221.564 464.505 221.997 463.759 221.998Z" fill="#F2F2F2"/>
<path d="M468.543 225.486H439.806C439.06 225.485 438.345 225.053 437.818 224.284C437.291 223.515 436.994 222.472 436.993 221.385V179.992C436.994 178.905 437.291 177.863 437.818 177.094C438.345 176.325 439.06 175.892 439.806 175.891H468.543C469.289 175.892 470.004 176.325 470.531 177.094C471.058 177.863 471.355 178.905 471.356 179.992V221.385C471.355 222.472 471.058 223.515 470.531 224.284C470.004 225.053 469.289 225.485 468.543 225.486Z" fill="#F2F2F2"/>
<path d="M435.624 173.625C434.94 173.625 434.285 174.021 433.802 174.725C433.318 175.43 433.047 176.386 433.047 177.382V217.019C433.047 218.015 433.318 218.971 433.802 219.676C434.285 220.38 434.94 220.776 435.624 220.776H453.196C456.521 220.776 459.71 218.85 462.061 215.422C464.412 211.993 465.733 207.343 465.733 202.494V177.382C465.733 176.386 465.462 175.43 464.979 174.725C464.495 174.021 463.84 173.625 463.156 173.625H435.624Z" fill="white"/>
<path d="M457.087 185.654H441.633C441.492 185.654 441.356 185.572 441.255 185.426C441.155 185.279 441.099 185.081 441.099 184.874C441.099 184.668 441.155 184.469 441.255 184.323C441.356 184.177 441.492 184.095 441.633 184.095H457.087C457.229 184.095 457.365 184.177 457.465 184.323C457.565 184.469 457.622 184.668 457.622 184.874C457.622 185.081 457.565 185.279 457.465 185.426C457.365 185.572 457.229 185.654 457.087 185.654Z" fill="#F2F2F2"/>
<path d="M457.087 202.279H441.633C441.492 202.279 441.356 202.197 441.255 202.051C441.155 201.905 441.099 201.707 441.099 201.5C441.099 201.293 441.155 201.095 441.255 200.948C441.356 200.802 441.492 200.72 441.633 200.72H457.087C457.229 200.72 457.365 200.802 457.465 200.948C457.565 201.095 457.622 201.293 457.622 201.5C457.622 201.707 457.565 201.905 457.465 202.051C457.365 202.197 457.229 202.279 457.087 202.279Z" fill="#F2F2F2"/>
<path d="M463.361 193.972H435.357C435.215 193.972 435.079 193.89 434.979 193.744C434.879 193.598 434.822 193.399 434.822 193.192C434.822 192.986 434.879 192.787 434.979 192.641C435.079 192.495 435.215 192.413 435.357 192.413H463.361C463.503 192.413 463.639 192.495 463.74 192.641C463.84 192.787 463.896 192.986 463.896 193.192C463.896 193.399 463.84 193.598 463.74 193.744C463.639 193.89 463.503 193.972 463.361 193.972Z" fill="#F2F2F2"/>
<path d="M463.647 209.039H453.531C453.389 209.039 453.253 208.957 453.153 208.811C453.052 208.665 452.996 208.466 452.996 208.26C452.996 208.053 453.052 207.855 453.153 207.708C453.253 207.562 453.389 207.48 453.531 207.48H463.647C463.789 207.48 463.925 207.562 464.026 207.708C464.126 207.855 464.182 208.053 464.182 208.26C464.182 208.466 464.126 208.665 464.026 208.811C463.925 208.957 463.789 209.039 463.647 209.039Z" fill="#F2F2F2"/>
<path d="M377.091 247.91L376.718 247.641C354.911 231.921 331.32 231.935 304.599 247.684L303.882 245.095C330.985 229.123 354.971 229.047 377.191 244.87C408.461 227.517 428.564 198.108 436.945 157.448L438.779 158.252C430.182 199.956 409.558 230.049 377.48 247.696L377.091 247.91Z" fill="#F2F2F2"/>
<path d="M468.058 247.91L467.683 247.653C446.251 232.991 422.647 233.005 395.521 247.698L394.854 245.081C422.325 230.2 446.297 230.128 468.12 244.869C503.131 224.471 523.231 195.113 527.867 157.603L529.752 158.097C524.973 196.757 504.346 226.9 468.443 247.687L468.058 247.91Z" fill="#F2F2F2"/>
<path d="M539.75 246.424L539.514 246.276C521.854 235.206 498.879 235.229 467.213 246.351L466.765 243.636C498.712 232.417 522.004 232.39 540.032 243.563C575.817 237.182 595.324 208.63 599.661 156.286L601.562 156.622C597.093 210.554 576.958 239.914 540.006 246.379L539.75 246.424Z" fill="#F2F2F2"/>
<path d="M445.927 164.027C450.157 164.027 453.586 159.027 453.586 152.859C453.586 146.692 450.157 141.692 445.927 141.692C441.698 141.692 438.269 146.692 438.269 152.859C438.269 159.027 441.698 164.027 445.927 164.027Z" fill="#6C63FF"/>
<path d="M532.089 164.027C536.319 164.027 539.748 159.027 539.748 152.859C539.748 146.692 536.319 141.692 532.089 141.692C527.86 141.692 524.431 146.692 524.431 152.859C524.431 159.027 527.86 164.027 532.089 164.027Z" fill="#6C63FF"/>
<path d="M601.018 162.631C605.248 162.631 608.677 157.631 608.677 151.463C608.677 145.296 605.248 140.296 601.018 140.296C596.788 140.296 593.359 145.296 593.359 151.463C593.359 157.631 596.788 162.631 601.018 162.631Z" fill="#6C63FF"/>
<path d="M387.521 332.976H307.016C304.927 332.973 302.924 331.762 301.447 329.608C299.97 327.454 299.139 324.534 299.137 321.488V205.53C299.139 202.484 299.97 199.563 301.447 197.409C302.924 195.256 304.927 194.044 307.016 194.041H387.521C389.61 194.044 391.613 195.256 393.09 197.409C394.567 199.563 395.398 202.484 395.4 205.53V321.488C395.398 324.534 394.567 327.454 393.09 329.608C391.613 331.762 389.61 332.973 387.521 332.976Z" fill="#E6E6E6"/>
<path d="M374.119 323.205H293.613C291.524 323.201 289.522 321.99 288.045 319.836C286.568 317.682 285.737 314.762 285.734 311.716V195.758C285.737 192.712 286.568 189.791 288.045 187.638C289.522 185.484 291.524 184.272 293.613 184.269H374.119C376.208 184.272 378.21 185.484 379.687 187.638C381.164 189.791 381.995 192.712 381.998 195.758V311.716C381.995 314.762 381.164 317.682 379.687 319.836C378.21 321.99 376.208 323.201 374.119 323.205Z" fill="#E6E6E6"/>
<path d="M308.606 187.692C303.163 187.692 297.942 190.845 294.093 196.457C290.244 202.07 288.082 209.682 288.082 217.619V309.255C288.082 310.638 288.269 312.007 288.631 313.284C288.994 314.561 289.526 315.721 290.196 316.698C290.867 317.676 291.662 318.451 292.538 318.98C293.414 319.509 294.353 319.781 295.301 319.781H344.527C349.14 319.781 353.707 318.457 357.968 315.883C362.23 313.309 366.101 309.537 369.363 304.781C372.624 300.025 375.211 294.379 376.977 288.166C378.742 281.952 379.65 275.292 379.65 268.567V198.218C379.65 195.426 378.89 192.749 377.536 190.775C376.182 188.801 374.346 187.692 372.431 187.692H308.606Z" fill="white"/>
<path d="M355.427 221.39H312.136C311.738 221.39 311.357 221.16 311.076 220.75C310.796 220.341 310.638 219.785 310.638 219.206C310.638 218.627 310.796 218.071 311.076 217.661C311.357 217.252 311.738 217.022 312.136 217.022H355.427C355.825 217.022 356.206 217.252 356.487 217.661C356.767 218.071 356.925 218.627 356.925 219.206C356.925 219.785 356.767 220.341 356.487 220.75C356.206 221.16 355.825 221.39 355.427 221.39Z" fill="#E6E6E6"/>
<path d="M355.427 267.965H312.135C311.938 267.965 311.743 267.91 311.561 267.8C311.379 267.691 311.213 267.53 311.074 267.327C310.934 267.124 310.824 266.883 310.748 266.618C310.673 266.352 310.634 266.068 310.634 265.781C310.634 265.493 310.673 265.209 310.748 264.944C310.824 264.678 310.934 264.437 311.074 264.234C311.213 264.031 311.379 263.871 311.561 263.761C311.743 263.652 311.938 263.596 312.135 263.597H355.427C355.824 263.598 356.204 263.829 356.484 264.238C356.764 264.648 356.921 265.202 356.921 265.781C356.921 266.359 356.764 266.914 356.484 267.323C356.204 267.733 355.824 267.963 355.427 267.965Z" fill="#E6E6E6"/>
<path d="M373.007 244.693H294.555C294.158 244.693 293.777 244.462 293.496 244.053C293.215 243.643 293.058 243.088 293.058 242.509C293.058 241.929 293.215 241.374 293.496 240.964C293.777 240.555 294.158 240.324 294.555 240.324H373.007C373.405 240.324 373.785 240.555 374.066 240.964C374.347 241.374 374.505 241.929 374.505 242.509C374.505 243.088 374.347 243.643 374.066 244.053C373.785 244.462 373.405 244.693 373.007 244.693Z" fill="#E6E6E6"/>
<path d="M373.809 286.902H345.468C345.271 286.902 345.076 286.846 344.894 286.736C344.713 286.626 344.548 286.465 344.408 286.262C344.269 286.06 344.159 285.819 344.084 285.554C344.008 285.289 343.97 285.005 343.97 284.718C343.97 284.431 344.008 284.147 344.084 283.882C344.159 283.617 344.269 283.376 344.408 283.174C344.548 282.971 344.713 282.81 344.894 282.7C345.076 282.59 345.271 282.534 345.468 282.534H373.809C374.206 282.534 374.587 282.764 374.868 283.174C375.149 283.583 375.306 284.139 375.306 284.718C375.306 285.297 375.149 285.853 374.868 286.262C374.587 286.672 374.206 286.902 373.809 286.902Z" fill="#E6E6E6"/>
<path d="M565.238 216.414H536.5C535.754 216.413 535.039 215.98 534.512 215.212C533.985 214.443 533.688 213.4 533.688 212.313V170.92C533.688 169.833 533.985 168.791 534.512 168.022C535.039 167.253 535.754 166.82 536.5 166.819H565.238C565.983 166.82 566.698 167.253 567.225 168.022C567.753 168.791 568.049 169.833 568.05 170.92V212.313C568.049 213.4 567.753 214.443 567.225 215.212C566.698 215.98 565.983 216.413 565.238 216.414Z" fill="#F2F2F2"/>
<path d="M570.022 219.902H541.284C540.539 219.901 539.824 219.469 539.296 218.7C538.769 217.931 538.473 216.889 538.472 215.801V174.408C538.473 173.321 538.769 172.279 539.296 171.51C539.824 170.741 540.539 170.309 541.284 170.307H570.022C570.767 170.309 571.482 170.741 572.009 171.51C572.537 172.279 572.833 173.321 572.834 174.408V215.801C572.833 216.889 572.537 217.931 572.009 218.7C571.482 219.469 570.767 219.901 570.022 219.902Z" fill="#F2F2F2"/>
<path d="M537.102 168.041C536.419 168.041 535.763 168.437 535.28 169.142C534.797 169.846 534.525 170.802 534.525 171.798V211.435C534.525 212.431 534.797 213.387 535.28 214.092C535.763 214.796 536.419 215.192 537.102 215.192H554.674C558 215.192 561.188 213.266 563.54 209.838C565.891 206.409 567.212 201.759 567.212 196.911V171.798C567.212 170.802 566.94 169.846 566.457 169.142C565.974 168.437 565.318 168.041 564.635 168.041H537.102Z" fill="white"/>
<path d="M558.565 180.07H543.112C542.97 180.07 542.834 179.988 542.734 179.842C542.633 179.695 542.577 179.497 542.577 179.29C542.577 179.084 542.633 178.885 542.734 178.739C542.834 178.593 542.97 178.511 543.112 178.511H558.565C558.707 178.511 558.843 178.593 558.944 178.739C559.044 178.885 559.1 179.084 559.1 179.29C559.1 179.497 559.044 179.695 558.944 179.842C558.843 179.988 558.707 180.07 558.565 180.07Z" fill="#F2F2F2"/>
<path d="M558.565 196.696H543.112C542.97 196.696 542.834 196.613 542.734 196.467C542.633 196.321 542.577 196.123 542.577 195.916C542.577 195.709 542.633 195.511 542.734 195.365C542.834 195.218 542.97 195.136 543.112 195.136H558.565C558.707 195.136 558.843 195.218 558.944 195.365C559.044 195.511 559.1 195.709 559.1 195.916C559.1 196.123 559.044 196.321 558.944 196.467C558.843 196.613 558.707 196.696 558.565 196.696Z" fill="#F2F2F2"/>
<path d="M564.841 188.388H536.836C536.695 188.388 536.559 188.306 536.458 188.16C536.358 188.014 536.302 187.815 536.302 187.609C536.302 187.402 536.358 187.203 536.458 187.057C536.559 186.911 536.695 186.829 536.836 186.829H564.841C564.983 186.829 565.119 186.911 565.219 187.057C565.319 187.203 565.376 187.402 565.376 187.609C565.376 187.815 565.319 188.014 565.219 188.16C565.119 188.306 564.983 188.388 564.841 188.388Z" fill="#F2F2F2"/>
<path d="M565.127 203.455H555.01C554.868 203.455 554.732 203.373 554.632 203.227C554.532 203.081 554.476 202.883 554.476 202.676C554.476 202.469 554.532 202.271 554.632 202.125C554.732 201.978 554.868 201.896 555.01 201.896H565.127C565.269 201.896 565.405 201.978 565.505 202.125C565.605 202.271 565.662 202.469 565.662 202.676C565.662 202.883 565.605 203.081 565.505 203.227C565.405 203.373 565.269 203.455 565.127 203.455Z" fill="#F2F2F2"/>
<path d="M235.805 777.804C235.36 777.833 234.919 777.663 234.543 777.316C234.166 776.968 233.872 776.46 233.7 775.861C233.529 775.262 233.487 774.6 233.582 773.965C233.677 773.331 233.903 772.754 234.23 772.313L234.379 771.45C234.359 771.381 234.34 771.312 234.32 771.243C233.871 769.699 233.12 768.382 232.161 767.459C231.201 766.535 230.075 766.046 228.925 766.052C227.776 766.058 226.653 766.56 225.698 767.494C224.743 768.428 223.998 769.752 223.558 771.301C221.798 777.483 219.557 783.675 219.005 790.211C218.762 793.1 218.864 796.029 219.308 798.866C215.174 785.717 213.027 771.424 213.013 756.958C213.012 753.328 213.151 749.701 213.427 746.093C213.656 743.136 213.974 740.2 214.38 737.284C216.596 721.466 221.353 706.64 228.261 694.024C231.605 691.363 234.309 687.272 236.009 682.302C236.625 680.516 237.06 678.608 237.302 676.64C236.924 676.712 235.879 668.336 236.164 667.822C235.638 666.659 234.697 666.081 234.123 664.946C231.268 659.301 227.335 660.287 225.281 667.957C220.894 671.186 220.852 676.54 223.543 681.689C225.256 684.965 225.491 689.398 226.994 692.905C226.839 693.194 226.678 693.474 226.524 693.762C223.698 699.061 221.235 704.75 219.17 710.749C219.673 704.028 219.073 697.23 217.422 690.913C215.748 685.026 212.611 680.067 209.849 674.978C209.118 673.611 208.126 672.59 206.998 672.045C205.869 671.5 204.655 671.455 203.509 671.915C202.364 672.376 201.337 673.322 200.56 674.633C199.782 675.944 199.289 677.562 199.142 679.282C199.136 679.357 199.131 679.432 199.125 679.507C199.536 679.845 199.937 680.203 200.33 680.582C200.824 681.063 201.206 681.75 201.428 682.554C201.649 683.357 201.699 684.239 201.57 685.084C201.442 685.93 201.141 686.699 200.708 687.291C200.275 687.883 199.729 688.27 199.142 688.402L199.082 688.415C199.228 690.572 199.487 692.709 199.855 694.808C196.311 714.793 203.962 722.071 214.887 722.398C215.128 722.579 215.363 722.759 215.604 722.93C213.53 731.502 212.228 740.431 211.733 749.493C211.453 754.839 211.469 760.209 211.783 765.551L211.764 765.362C210.973 759.421 208.799 754.061 205.612 750.187C200.877 744.516 194.188 742.427 189.08 737.868C188.537 737.36 187.906 737.089 187.261 737.087C186.616 737.084 185.984 737.351 185.439 737.855C184.894 738.36 184.46 739.081 184.187 739.933C183.915 740.786 183.815 741.734 183.899 742.667L183.92 742.866C184.682 743.318 185.423 743.839 186.14 744.425C186.55 744.763 186.952 745.121 187.345 745.5C187.839 745.981 188.221 746.668 188.443 747.472C188.664 748.275 188.714 749.157 188.585 750.003C188.457 750.848 188.156 751.617 187.723 752.209C187.29 752.801 186.744 753.188 186.157 753.32L186.097 753.334C186.054 753.343 186.016 753.352 185.973 753.361C187.274 757.89 189.1 762.06 191.371 765.686C193.587 783.132 203.105 784.787 213.285 779.707H213.291C214.408 786.785 216.027 793.674 218.121 800.264H235.372C235.434 799.985 235.49 799.696 235.545 799.416C233.949 799.563 232.346 799.424 230.772 799.002C232.052 796.712 233.332 794.403 234.612 792.113C234.64 792.07 234.667 792.025 234.692 791.978C235.341 790.806 235.997 789.643 236.646 788.471L236.646 788.469C236.681 784.876 236.398 781.291 235.805 777.804Z" fill="#F2F2F2"/>
<path d="M5.04509e-06 800.339C-0.000441153 800.557 0.0287138 800.774 0.0858124 800.975C0.142911 801.177 0.226817 801.361 0.332702 801.515C0.438587 801.669 0.564367 801.792 0.702796 801.875C0.841225 801.958 0.989574 802.001 1.13931 802H243.626C243.929 802 244.218 801.825 244.432 801.514C244.646 801.202 244.766 800.779 244.766 800.339C244.766 799.898 244.646 799.476 244.432 799.164C244.218 798.853 243.929 798.678 243.626 798.678H1.13931C0.989575 798.677 0.841223 798.72 0.702796 798.803C0.564369 798.886 0.438601 799.008 0.332717 799.163C0.226833 799.317 0.142928 799.501 0.0858271 799.702C0.0287266 799.904 -0.00043607 800.12 5.04509e-06 800.339Z" fill="#CCCCCC"/>
<path d="M103.856 97.2856L109.61 96.8528C107.709 97.3081 105.779 97.4532 103.856 97.2856Z" fill="#F2F2F2"/>
<path d="M138.139 131.264L137.192 133.023L134.645 137.741L112.655 178.517L80.708 130.831L81.9813 129.351L88.7593 108.342L123.578 104.852L133.994 128.807L138.139 131.264Z" fill="#3F3D56"/>
</g>
<defs>
<clipPath id="clip0_156_33">
<rect width="781" height="802" fill="white"/>
</clipPath>
</defs>
</svg>
