<svg width="666" height="726" viewBox="0 0 666 726" fill="none" xmlns="http://www.w3.org/2000/svg">
<g clip-path="url(#clip0_9_139)">
<path d="M290.17 652.891C302.253 655.197 314.854 640.945 318.313 621.056C319.828 612.351 319.339 604.009 317.298 597.187L319.15 585.722L350.244 431.496C350.244 431.496 407.502 311.541 407.5 290.716C407.499 269.891 390.937 259.679 390.937 259.679L368.526 259.898L298.246 439.673L285.589 572.519L283.541 590.746C279.334 596.376 276.068 604.001 274.554 612.707C271.094 632.594 278.086 650.586 290.17 652.891Z" fill="#FFB6B6"/>
<path d="M518.142 185.367L497.312 134.917L429.613 147.189L425.057 206.545L518.142 185.367Z" fill="#FFB6B6"/>
<path opacity="0.1" d="M518.142 185.367L497.312 134.917L429.613 147.189L425.057 206.545L518.142 185.367Z" fill="black"/>
<path d="M456.386 156.065C490.783 156.065 518.667 126.862 518.667 90.8371C518.667 54.8125 490.783 25.6088 456.386 25.6088C421.989 25.6088 394.105 54.8125 394.105 90.8371C394.105 126.862 421.989 156.065 456.386 156.065Z" fill="#FFB6B6"/>
<path d="M490.433 92.229C490.433 92.229 495.848 72.3768 508.034 73.7949C520.219 75.2129 522.927 63.8688 520.219 58.1968C517.511 52.5247 512.096 24.1646 512.096 24.1646C512.096 24.1646 514.803 4.31246 498.556 1.47645C482.309 -1.35956 476.893 -4.19558 474.186 -9.86762C471.478 -15.5397 430.86 -21.2117 417.321 -12.7036C403.781 -4.19558 392.95 12.1283 383.473 16.7284C373.995 21.3286 365.871 29.8366 371.287 44.0167C376.703 58.1968 384.557 85.93 384.557 85.93C384.557 85.93 398.366 80.8849 401.074 89.3929C403.781 97.901 392.95 86.5569 406.489 63.8688C420.029 41.1807 420.029 18.4925 441.691 27.0006C463.354 35.5086 487.725 32.6726 485.017 49.6887C482.309 66.7048 490.433 92.229 490.433 92.229Z" fill="#2F2E41"/>
<path d="M497.257 626.376H24.2585C10.8821 626.376 0 614.978 0 600.97V337.821C0 323.813 10.8821 312.415 24.2585 312.415H497.257C510.634 312.415 521.516 323.813 521.516 337.821V600.97C521.516 614.978 510.634 626.376 497.257 626.376Z" fill="white"/>
<path d="M497.257 626.376H24.2585C10.8821 626.376 0 614.978 0 600.97V337.821C0 323.813 10.8821 312.415 24.2585 312.415H497.257C510.634 312.415 521.516 323.813 521.516 337.821V600.97C521.516 614.978 510.634 626.376 497.257 626.376ZM24.2585 316.657C13.1163 316.657 4.05098 326.152 4.05098 337.821V600.97C4.05098 612.639 13.1163 622.133 24.2585 622.133H497.257C508.4 622.133 517.465 612.639 517.465 600.97V337.821C517.465 326.152 508.4 316.657 497.257 316.657H24.2585Z" fill="#3F3D56"/>
<path d="M460.751 344.235C464.107 344.235 466.828 341.386 466.828 337.871C466.828 334.356 464.107 331.507 460.751 331.507C457.395 331.507 454.675 334.356 454.675 337.871C454.675 341.386 457.395 344.235 460.751 344.235Z" fill="#3F3D56"/>
<path d="M476.955 344.235C480.311 344.235 483.032 341.386 483.032 337.871C483.032 334.356 480.311 331.507 476.955 331.507C473.599 331.507 470.879 334.356 470.879 337.871C470.879 341.386 473.599 344.235 476.955 344.235Z" fill="#3F3D56"/>
<path d="M493.159 344.235C496.514 344.235 499.235 341.386 499.235 337.871C499.235 334.356 496.514 331.507 493.159 331.507C489.803 331.507 487.082 334.356 487.082 337.871C487.082 341.386 489.803 344.235 493.159 344.235Z" fill="#3F3D56"/>
<path d="M34.4338 440.757C32.7584 440.757 31.3955 442.184 31.3955 443.939C31.3955 444.795 31.711 445.586 32.2836 446.17C32.8612 446.79 33.6178 447.121 34.4338 447.121H489.108C490.784 447.121 492.147 445.694 492.147 443.939C492.147 443.083 491.831 442.292 491.258 441.708C490.681 441.088 489.924 440.757 489.108 440.757H34.4338Z" fill="#E6E6E6"/>
<path d="M432.395 439.696V448.182H34.4338C33.3198 448.182 32.3071 447.715 31.5779 446.93C30.8284 446.166 30.3828 445.106 30.3828 443.939C30.3828 441.605 32.2058 439.696 34.4338 439.696H432.395Z" fill="#F93B6D"/>
<path d="M484.045 423.786H443.535C439.067 423.786 435.433 419.98 435.433 415.301C435.433 410.621 439.067 406.815 443.535 406.815H484.045C488.512 406.815 492.146 410.621 492.146 415.301C492.146 419.98 488.512 423.786 484.045 423.786Z" fill="#E6E6E6"/>
<path d="M218.705 379.237H37.4721C33.0047 379.237 29.3701 375.432 29.3701 370.752C29.3701 366.072 33.0047 362.267 37.4721 362.267H218.705C223.172 362.267 226.807 366.072 226.807 370.752C226.807 375.432 223.172 379.237 218.705 379.237Z" fill="#E6E6E6"/>
<path d="M34.4338 536.218C32.7584 536.218 31.3955 537.646 31.3955 539.4C31.3955 540.256 31.711 541.047 32.2836 541.631C32.8612 542.251 33.6178 542.582 34.4338 542.582H489.108C490.784 542.582 492.147 541.155 492.147 539.4C492.147 538.545 491.831 537.753 491.258 537.169C490.681 536.55 489.924 536.218 489.108 536.218H34.4338Z" fill="#E6E6E6"/>
<path d="M276.431 535.157V543.643H34.4338C33.3198 543.643 32.3071 543.176 31.5779 542.391C30.8284 541.628 30.3828 540.567 30.3828 539.4C30.3828 537.067 32.2058 535.157 34.4338 535.157H276.431Z" fill="#F93B6D"/>
<path d="M484.045 519.247H443.535C439.067 519.247 435.433 515.442 435.433 510.762C435.433 506.082 439.067 502.276 443.535 502.276H484.045C488.512 502.276 492.146 506.082 492.146 510.762C492.146 515.442 488.512 519.247 484.045 519.247Z" fill="#E6E6E6"/>
<path d="M554.963 161.086C589.998 161.086 618.4 131.967 618.4 96.047C618.4 60.1269 589.998 31.0078 554.963 31.0078C519.928 31.0078 491.526 60.1269 491.526 96.047C491.526 131.967 519.928 161.086 554.963 161.086Z" fill="#F93B6D"/>
<path d="M576.493 63.2408C568.048 79.3468 559.602 95.4529 551.157 111.559C545.774 101.599 540.421 91.6206 535.025 81.668C533.162 78.2307 528.093 81.3223 529.961 84.7682C536.216 96.3055 542.406 107.881 548.661 119.419C549.731 121.391 552.667 121.437 553.725 119.419C563.003 101.726 572.28 84.0335 581.557 66.341C583.375 62.8741 578.312 59.7713 576.493 63.2408Z" fill="white"/>
<path d="M642.534 267.483L579.331 235.817C579.331 235.817 576.792 214.623 564.94 207.064C562.925 202.029 560.606 196.498 558.501 192.115C553.293 181.277 561.104 160.824 554.595 160.824C548.085 160.824 538.463 182.334 538.972 188.094C539.363 192.516 542.853 200.236 543.573 206.994C535.636 210.129 529.232 215.503 525.022 219.782C521.378 223.485 520.025 229.01 521.449 234.114C525.575 248.904 535.889 279.45 550.689 279.45C570.218 279.45 575.425 275.359 575.425 275.359C575.425 275.359 615.784 328.536 645.727 332.627C675.671 336.717 642.534 267.483 642.534 267.483Z" fill="#FFB6B6"/>
</g>
<defs>
<clipPath id="clip0_9_139">
<rect width="666" height="726" fill="white"/>
</clipPath>
</defs>
</svg>
